<svg xmlns="http://www.w3.org/2000/svg" xmlns:xlink="http://www.w3.org/1999/xlink" width="108" height="108" viewBox="0 0 108 108">
  <defs>
    <filter id="Elipse_6" x="0" y="0" width="108" height="108" filterUnits="userSpaceOnUse">
      <feOffset dx="6" dy="6" input="SourceAlpha"/>
      <feGaussianBlur stdDeviation="3" result="blur"/>
      <feFlood flood-opacity="0.161"/>
      <feComposite operator="in" in2="blur"/>
      <feComposite in="SourceGraphic"/>
    </filter>
  </defs>
  <g id="Garage" transform="translate(-83 -1263)">
    <g transform="matrix(1, 0, 0, 1, 83, 1263)" filter="url(#Elipse_6)">
      <g id="Elipse_6-2" data-name="Elipse 6" transform="translate(3 3)" fill="#fffefe" stroke="#fffbfb" stroke-width="1">
        <circle cx="45" cy="45" r="45" stroke="none"/>
        <circle cx="45" cy="45" r="44.5" fill="none"/>
      </g>
    </g>
    <g id="Garage_door" transform="translate(101 1281)">
      <path id="Trazado_74" data-name="Trazado 74" d="M101.574,91.27h-57.9a2.008,2.008,0,0,0-.195-.1,1.217,1.217,0,0,1,.42-2.377,6.03,6.03,0,0,0,.947-.015,1.67,1.67,0,0,0,.822-.337c1.081-1,2.115-2.056,3.195-3.059a1.432,1.432,0,0,0,.494-1.165q-.017-25.629-.022-51.26c0-.836.224-1.418,1.046-1.685H94.532c.858.265,1.066.885,1.066,1.731q-.021,27.483-.011,54.965v.821h.671c1.714,0,3.426-.006,5.142,0a1.168,1.168,0,0,1,1.186.912,1.222,1.222,0,0,1-.66,1.406C101.811,91.17,101.691,91.217,101.574,91.27ZM51.792,82.458a2.4,2.4,0,0,0,.263-.185q3.3-3.2,6.588-6.4a.822.822,0,0,0,.165-.581c-.063-.875-.214-1.747-.236-2.624a3.99,3.99,0,0,1,1.972-3.827c.977-.579,1.907-1.236,2.878-1.827a.751.751,0,0,0,.417-.757c-.023-1.273-.013-2.547-.008-3.82.006-1.019.459-1.478,1.468-1.481,1.546,0,3.092.012,4.638-.016a1.077,1.077,0,0,0,.692-.318,2.436,2.436,0,0,1,3.663,0,1.086,1.086,0,0,0,.693.319c1.508.028,3.018.013,4.526.015,1.156,0,1.586.431,1.587,1.589V78.607a1.221,1.221,0,0,1-1.278,1.208,3.253,3.253,0,0,0-.671.012,1.685,1.685,0,0,0-.756.337c-.839.824-1.617,1.711-2.465,2.524-.9.865-1.823,1.719-2.8,2.494a4.933,4.933,0,0,1-4.695,1.082.5.5,0,0,0-.4.048c-.894.779-1.765,1.573-2.732,2.446H93.132V46.782H51.792ZM75.313,80.01l-.12-.194H65.252a1.238,1.238,0,0,1-1.412-1.409c-.009-1.929.007-3.857-.008-5.786a1.479,1.479,0,0,1,.866-1.436c1.235-.653,2.459-1.321,3.669-2.022a2.913,2.913,0,0,0,.968-.892,1.049,1.049,0,0,0-.023-.908.913.913,0,0,0-.755-.26,2.617,2.617,0,0,0-1.045.358C65.6,68.612,63.7,69.8,61.79,70.957a1.468,1.468,0,0,0-.769,1.447,26.353,26.353,0,0,0,.335,3.058,1.729,1.729,0,0,1-.552,1.748q-5.731,5.512-11.439,11.058a2.693,2.693,0,0,1-.512.317l.144.181c.085.006.171.017.257.017q6.008,0,12.015-.01a1.042,1.042,0,0,0,.627-.261c1.746-1.544,3.474-3.117,5.212-4.671.516-.463,1.017-.585,1.468-.249a2.018,2.018,0,0,0,2.636-.065C72.629,82.419,73.952,81.189,75.313,80.01ZM51.793,37.763H93.128V33.78H51.793Zm-.032,6.5H93.127V40.286H51.791c-.011.2-.029.361-.029.525,0,1.138,0,2.278,0,3.456Zm20.03,22.494c2.224-.091,3.74.9,4.183,2.708a3.642,3.642,0,0,1-1.989,4.2,3.533,3.533,0,0,1-2.4.225A3.736,3.736,0,0,1,69.018,71.6c-.844.465-1.647.9-2.439,1.348-.127.073-.3.225-.3.337-.021,1.342-.013,2.683-.013,4.035h12.36V63.451H66.3v1.812C69.473,64.146,70.565,64.445,71.791,66.758Zm1.852,3.6a1.2,1.2,0,1,0-.35.859,1.205,1.205,0,0,0,.35-.856Z" transform="translate(-42.623 -31.27)" fill="#fe5000"/>
      <path id="Trazado_75" data-name="Trazado 75" d="M250.846,205.51a11.536,11.536,0,0,1,6.707,2.148,1.267,1.267,0,0,1,.442,1.883,1.247,1.247,0,0,1-1.874.113,9.084,9.084,0,0,0-10.57.03,1.238,1.238,0,1,1-1.5-1.957A11.574,11.574,0,0,1,250.846,205.51Z" transform="translate(-221.014 -185.942)" fill="#fe5000"/>
      <path id="Trazado_76" data-name="Trazado 76" d="M264.036,243a8.475,8.475,0,0,1,5.057,1.662,1.25,1.25,0,0,1,.415,1.84,1.228,1.228,0,0,1-1.822.175,6.059,6.059,0,0,0-6.434-.575,6.413,6.413,0,0,0-.986.628,1.22,1.22,0,0,1-1.7-.167,1.205,1.205,0,0,1,.2-1.752A8.133,8.133,0,0,1,264.036,243Z" transform="translate(-234.168 -219.221)" fill="#fe5000"/>
    </g>
  </g>
</svg>
