<svg xmlns="http://www.w3.org/2000/svg" xmlns:xlink="http://www.w3.org/1999/xlink" width="108" height="108" viewBox="0 0 108 108">
  <defs>
    <filter id="Elipse_7" x="0" y="0" width="108" height="108" filterUnits="userSpaceOnUse">
      <feOffset dx="6" dy="6" input="SourceAlpha"/>
      <feGaussianBlur stdDeviation="3" result="blur"/>
      <feFlood flood-opacity="0.161"/>
      <feComposite operator="in" in2="blur"/>
      <feComposite in="SourceGraphic"/>
    </filter>
  </defs>
  <g id="Instalacion" transform="translate(-479 -1075)">
    <g transform="matrix(1, 0, 0, 1, 479, 1075)" filter="url(#Elipse_7)">
      <g id="Elipse_7-2" data-name="Elipse 7" transform="translate(3 3)" fill="#fffefe" stroke="#fffbfb" stroke-width="1">
        <circle cx="45" cy="45" r="45" stroke="none"/>
        <circle cx="45" cy="45" r="44.5" fill="none"/>
      </g>
    </g>
    <g id="Worker" transform="matrix(1, 0.017, -0.017, 1, 500.134, 1090)">
      <path id="Trazado_101" data-name="Trazado 101" d="M139.059,28.28c.452.268.918.514,1.351.81a1.058,1.058,0,0,1,.411,1.206c-.434,2.367-.836,4.741-1.25,7.114-.144.82.11,1.39.709,1.581a1.15,1.15,0,0,0,1.483-1.045c.369-2.1.723-4.191,1.078-6.287.027-.156.071-.307.135-.582a15.2,15.2,0,0,1,8.037,13.345c.245,0,.456-.01.668,0A2.152,2.152,0,0,1,153.7,46.6a2.181,2.181,0,0,1-1.975,2.17c-.2.014-.395.007-.591.007H121.53a4.13,4.13,0,0,1-.882-.052,2.184,2.184,0,0,1,.4-4.308l.635-.029a15.173,15.173,0,0,1,3.386-9.5,13.489,13.489,0,0,1,4.655-3.738c.149.811.3,1.61.438,2.412q.372,2.134.733,4.27c.15.89.656,1.326,1.384,1.185.651-.121.979-.723.837-1.548-.391-2.273-.727-4.558-1.2-6.814-.253-1.206.1-1.466,1.077-2.076a5.53,5.53,0,0,1,.626-.3Z" transform="translate(-109.264 -28.28)" fill="#fe5000"/>
      <path id="Trazado_102" data-name="Trazado 102" d="M42.829,395.9a1.979,1.979,0,0,0-.29-.187,6.854,6.854,0,0,1-4.354-5.877C37.37,382.6,40,376.847,45.8,372.534a4.909,4.909,0,0,1,.479-.274v.66c0,4.582-.006,9.155.011,13.732a.878.878,0,0,1-.5.89,5.4,5.4,0,0,0-2.793,4.863c-.023,1.164-.029,2.327-.043,3.491Z" transform="translate(-38.04 -330.895)" fill="#fe5000"/>
      <path id="Trazado_103" data-name="Trazado 103" d="M428.54,396.115c-.014-1.1-.038-2.207-.042-3.31a5.581,5.581,0,0,0-2.94-5.153.752.752,0,0,1-.336-.539c-.018-4.8-.013-9.6-.011-14.393a1.069,1.069,0,0,1,.055-.21c.173.1.329.177.466.279a17.916,17.916,0,0,1,7.686,16.366c-.189,3.153-1.566,5.607-4.633,6.846-.05.019-.085.075-.127.115Z" transform="translate(-379.295 -331.115)" fill="#fe5000"/>
      <path id="Trazado_104" data-name="Trazado 104" d="M183.127,348.362l1.756.264c-.072.918-.191,1.744-.193,2.571-.019,4.6-.01,9.2-.01,13.8v.762h-25.1v-.675c0-4.742.01-9.484-.01-14.228,0-.709-.134-1.417-.217-2.231l1.765-.27A8.019,8.019,0,0,0,163.3,352a63.306,63.306,0,0,0,8.548,7.628.585.585,0,0,0,.551.016,58.523,58.523,0,0,0,9.135-8.31A6.409,6.409,0,0,0,183.127,348.362Z" transform="translate(-145.054 -309.877)" fill="#fe5000"/>
      <path id="Trazado_105" data-name="Trazado 105" d="M170.082,221.044H171.9c-.259,1.037-.464,2.032-.758,3a25.747,25.747,0,0,1-6.759,11.534,10.821,10.821,0,0,1-5.822,3.073,9.08,9.08,0,0,1-7.05-2.05,22.1,22.1,0,0,1-6.545-8.69,27.206,27.206,0,0,1-2.15-6.89c.56,0,1.082-.029,1.6.022.126.012.292.27.329.44a25.386,25.386,0,0,0,4.26,9.635,12.832,12.832,0,0,0,5.668,4.739c3.058,1.176,5.755.306,8.174-1.7a21.063,21.063,0,0,0,6.139-9.4C169.413,223.57,169.705,222.337,170.082,221.044Z" transform="translate(-130.263 -197.827)" fill="#fe5000"/>
    </g>
  </g>
</svg>
