<svg xmlns="http://www.w3.org/2000/svg" xmlns:xlink="http://www.w3.org/1999/xlink" width="108" height="108" viewBox="0 0 108 108">
  <defs>
    <filter id="Elipse_10" x="0" y="0" width="108" height="108" filterUnits="userSpaceOnUse">
      <feOffset dx="6" dy="6" input="SourceAlpha"/>
      <feGaussianBlur stdDeviation="3" result="blur"/>
      <feFlood flood-opacity="0.161"/>
      <feComposite operator="in" in2="blur"/>
      <feComposite in="SourceGraphic"/>
    </filter>
  </defs>
  <g id="Keys" transform="translate(-894 -1276)">
    <g transform="matrix(1, 0, 0, 1, 894, 1276)" filter="url(#Elipse_10)">
      <g id="Elipse_10-2" data-name="Elipse 10" transform="translate(3 3)" fill="#fffefe" stroke="#fffbfb" stroke-width="1">
        <circle cx="45" cy="45" r="45" stroke="none"/>
        <circle cx="45" cy="45" r="44.5" fill="none"/>
      </g>
    </g>
    <path id="Keys-2" data-name="Keys" d="M37.241,79.3h-.621a8.712,8.712,0,0,1-.715-1.071c-.324-.673-.58-1.381-.873-2.071Q34.021,73.777,33,71.394v-.65c.449-1.068.868-2.151,1.363-3.195a1.929,1.929,0,0,1,.8-.831c.846-.433,1.736-.784,2.608-1.17.149-.067.292-.151.449-.232-.425-1.1-.828-2.129-1.23-3.162-.386-.99-.236-1.375.714-1.814l1.51-.7c.479-.223.958-.448,1.448-.679-.456-1.165-.916-2.252-1.3-3.369a1.873,1.873,0,0,1,0-1.128q.667-1.9,1.461-3.752a1.339,1.339,0,0,0-.117-1.372,14.684,14.684,0,0,1,2.724-18.381c.493-.443,1.034-.83,1.509-1.21-.121-.89-.3-1.742-.342-2.6a12.249,12.249,0,0,1,8.043-12.173,26.332,26.332,0,0,1,2.911-.666H56.9a2.167,2.167,0,0,0,.342.092c6.7.689,11.56,7.4,10.339,14.3a.612.612,0,0,0,.332.721,21.039,21.039,0,0,1,2.631,1.99,14.79,14.79,0,0,1,.239,20.666A.719.719,0,0,0,70.6,53c1.741,4.237,3.456,8.485,5.186,12.727.724,1.786,1.474,3.565,2.212,5.348v.65c-.083.152-.178.3-.247.456C76.868,74.2,76,76.231,75.1,78.243a7.325,7.325,0,0,1-.718,1.067h-.621c-.092-.047-.182-.1-.277-.136-2.148-.825-4.294-1.656-6.446-2.469a1.413,1.413,0,0,1-.893-.895c-.353-.958-.719-1.911-1.12-2.848a1.817,1.817,0,0,1-.017-1.5c.414-1,.773-2.029,1.17-3.085-1.027-.464-2-.9-2.98-1.346-1.079-.489-1.205-.822-.751-1.961.4-.991.788-1.982,1.191-3-1.092-.5-2.149-.935-3.166-1.456a1.858,1.858,0,0,1-.789-.841c-.5-1.108-.916-2.254-1.363-3.385a1.517,1.517,0,0,0-1.627-.856,14.091,14.091,0,0,1-4.431.715c-.087.248-.163.486-.252.718q-3.517,9.177-7.034,18.358a2.05,2.05,0,0,1-1.258,1.294C41.544,77.476,39.4,78.405,37.241,79.3ZM65.15,30.2c-4.737-1.965-11.983.062-14.736,6.6A12.671,12.671,0,0,0,56.62,53.349a11.866,11.866,0,0,0,15.568-6.871c2.451-6.437-1.027-13.272-5.2-15.382-.4.737-.754,1.5-1.2,2.2s-1.012,1.359-1.531,2.044c1.063,2.428.548,4.869-1.33,6.234a4.3,4.3,0,0,1-5.544-.692,4.6,4.6,0,0,1-.34-5.759,4.083,4.083,0,0,1,5.69-1.239A8.223,8.223,0,0,0,65.15,30.2ZM46.807,28.7a.122.122,0,0,0,.048,0,1.976,1.976,0,0,0,.2-.064,13.382,13.382,0,0,1,9.46-.481,1.153,1.153,0,0,0,.642-.03,12.112,12.112,0,0,1,5.159-.521c1.119.153,2.227.405,3.343.613A10.012,10.012,0,0,0,61.791,18.2a9.547,9.547,0,0,0-11.553.217A10.4,10.4,0,0,0,46.807,28.7Zm-7.8,33.256c.449,1.148.879,2.245,1.306,3.342a1.1,1.1,0,0,1-.658,1.632,10.52,10.52,0,0,1-1.576.671A3.712,3.712,0,0,0,35.2,70.647a1.6,1.6,0,0,0,.014.867c.67,1.678,1.378,3.341,2.076,5.007.06.144.139.279.219.442.187-.072.349-.13.507-.195,1.536-.634,3.069-1.278,4.612-1.895a1.132,1.132,0,0,0,.691-.721q3.349-8.755,6.714-17.5c.067-.177.119-.36.189-.577a13.234,13.234,0,0,1-7.75-4.242c-.373.953-.742,1.809-1.034,2.692a1.7,1.7,0,0,0,0,1.015c.4,1.132.86,2.239,1.292,3.358.321.831.148,1.279-.631,1.642-1.011.46-2.018.923-3.1,1.42ZM73.513,77c.769-1.765,1.5-3.473,2.259-5.168a1.113,1.113,0,0,0,0-.967Q72.417,62.636,69.079,54.4c-.078-.191-.171-.374-.271-.593a13.169,13.169,0,0,1-8.455,2.4c.316.8.567,1.506.879,2.183a1.342,1.342,0,0,0,.574.612c1.093.531,2.209,1.01,3.31,1.517a1.05,1.05,0,0,1,.621,1.556c-.168.433-.347.867-.517,1.3-.261.656-.517,1.314-.787,1.989,1.138.515,2.213.993,3.282,1.488a1.026,1.026,0,0,1,.57,1.454c-.2.557-.42,1.106-.621,1.662a7.088,7.088,0,0,0-.749,2.268,7.238,7.238,0,0,0,.821,2.251.523.523,0,0,0,.056.151c.09.1.175.237.289.282C69.868,75.614,71.662,76.3,73.513,77ZM53.935,54.049a14.093,14.093,0,0,1-6.469-12.163,14.72,14.72,0,0,1,6.441-12.248,11.621,11.621,0,0,0-11.814,6.118,12.789,12.789,0,0,0,1.1,13.974C46.345,53.666,51.188,54.7,53.935,54.049ZM58.28,38.573A2.262,2.262,0,0,0,60,40.306a2.73,2.73,0,0,0,2.714-1.279,2.293,2.293,0,0,0-.022-2.308Zm2.6-3.205-.051-.173a2.775,2.775,0,0,0-2.172.885l.07.182Z" transform="translate(887 1277.69)" fill="#fe5000"/>
  </g>
</svg>
