<svg xmlns="http://www.w3.org/2000/svg" xmlns:xlink="http://www.w3.org/1999/xlink" width="108" height="108" viewBox="0 0 108 108">
  <defs>
    <filter id="Elipse_5" x="0" y="0" width="108" height="108" filterUnits="userSpaceOnUse">
      <feOffset dx="6" dy="6" input="SourceAlpha"/>
      <feGaussianBlur stdDeviation="3" result="blur"/>
      <feFlood flood-opacity="0.161"/>
      <feComposite operator="in" in2="blur"/>
      <feComposite in="SourceGraphic"/>
    </filter>
  </defs>
  <g id="Personalizacion" transform="translate(-85 -1069)">
    <g transform="matrix(1, 0, 0, 1, 85, 1069)" filter="url(#Elipse_5)">
      <g id="Elipse_5-2" data-name="Elipse 5" transform="translate(3 3)" fill="#fffefe" stroke="#fffbfb" stroke-width="1">
        <circle cx="45" cy="45" r="45" stroke="none"/>
        <circle cx="45" cy="45" r="44.5" fill="none"/>
      </g>
    </g>
    <g id="Personalization" transform="translate(113 1087)">
      <path id="Trazado_99" data-name="Trazado 99" d="M203.051,71.433c-.278-.107-.568-.194-.832-.323a3.859,3.859,0,0,1-2.349-3.748V15.6a3.868,3.868,0,0,1,4.114-4.125h9.479a3.852,3.852,0,0,1,4.034,3.044.569.569,0,0,0,.091.136V68.257a7.4,7.4,0,0,1-.8,1.659,4.671,4.671,0,0,1-2.379,1.521Zm-.425-49.064v4.089h1.833a1.373,1.373,0,1,1,.02,2.725h-1.838v4.089c1.143,0,2.24-.011,3.337,0a1.36,1.36,0,1,1-.01,2.718c-1.11.014-2.219,0-3.331,0v4.089h1.852a1.369,1.369,0,1,1,.016,2.724c-.619.006-1.239,0-1.873,0v4.089c1.136,0,2.225-.008,3.32,0a1.339,1.339,0,0,1,1.422,1.363,1.353,1.353,0,0,1-1.436,1.356c-.379.008-.758,0-1.136,0h-2.175V53.7h1.835a1.373,1.373,0,1,1,.011,2.725H202.6v3.764c0,.09.012.181.023.325h.58c.928,0,1.856-.011,2.783,0a1.36,1.36,0,1,1-.019,2.718c-1.109.012-2.219,0-3.368,0V67.2c0,1.112.355,1.476,1.449,1.476h9.143c1.386,0,1.674-.284,1.674-1.648V15.583c0-1.065-.361-1.42-1.439-1.421h-9.6c-.671,0-1.175.32-1.194.889-.048,1.5-.016,3.012-.016,4.56h3.218a1.373,1.373,0,1,1-.006,2.726C204.774,22.372,203.718,22.369,202.627,22.369Z" transform="translate(-178.497 -11.437)" fill="#fe5000"/>
      <path id="Trazado_100" data-name="Trazado 100" d="M14.987,71.18a3.647,3.647,0,0,1-1.94-2.375,31.167,31.167,0,0,1-1.34-6.306A249.279,249.279,0,0,1,10,31.3a2.178,2.178,0,0,0-.3-1.121,11.961,11.961,0,0,1-1.751-5.854,9.169,9.169,0,0,1,1.32-4.693c.646-1.136,1.449-2.169,2.194-3.24a11.55,11.55,0,0,0,1.961-4.116,1.318,1.318,0,0,1,1.952-.909c3.833,2.251,6.783,5.249,7.922,9.7a10.622,10.622,0,0,1-1.96,9.06,2.374,2.374,0,0,0-.462,1.455c0,6.4-.179,12.79-.583,19.174a124.767,124.767,0,0,1-1.563,14.486,21.774,21.774,0,0,1-.96,3.728A3.574,3.574,0,0,1,15.9,71.18Zm.445-4.047a5.51,5.51,0,0,0,.461-1.537,95.673,95.673,0,0,0,1.4-11.082c.436-5.418.637-10.842.76-16.272,0-.143.055-.3-.076-.427H12.832v.692c.106,4.37.258,8.738.546,13.1a122.3,122.3,0,0,0,1.387,12.854A11.628,11.628,0,0,0,15.432,67.134ZM15.5,14.8a26.553,26.553,0,0,1-3.136,5.04,11.946,11.946,0,0,0-1.076,1.8,5.742,5.742,0,0,0-.582,3.247A11.683,11.683,0,0,0,11.9,28.532a.625.625,0,0,0,.647.408c1.967-.018,3.934-.014,5.906,0a.661.661,0,0,0,.618-.294c2.113-3,2.476-6.1.588-9.349A14.723,14.723,0,0,0,15.5,14.8ZM12.786,31.685v3.33H18.11v-3.33Z" transform="translate(-7.954 -11.185)" fill="#fe5000"/>
    </g>
  </g>
</svg>
