<svg xmlns="http://www.w3.org/2000/svg" xmlns:xlink="http://www.w3.org/1999/xlink" width="108" height="108" viewBox="0 0 108 108">
  <defs>
    <filter id="Elipse_8" x="0" y="0" width="108" height="108" filterUnits="userSpaceOnUse">
      <feOffset dx="6" dy="6" input="SourceAlpha"/>
      <feGaussianBlur stdDeviation="3" result="blur"/>
      <feFlood flood-opacity="0.161"/>
      <feComposite operator="in" in2="blur"/>
      <feComposite in="SourceGraphic"/>
    </filter>
  </defs>
  <g id="Reformas" transform="translate(-475 -1263)">
    <g transform="matrix(1, 0, 0, 1, 475, 1263)" filter="url(#Elipse_8)">
      <g id="Elipse_8-2" data-name="Elipse 8" transform="translate(3 3)" fill="#fffefe" stroke="#fffbfb" stroke-width="1">
        <circle cx="45" cy="45" r="45" stroke="none"/>
        <circle cx="45" cy="45" r="44.5" fill="none"/>
      </g>
    </g>
    <g id="Drill" transform="translate(496 1296)">
      <path id="Trazado_71" data-name="Trazado 71" d="M49.467,13.53a11.578,11.578,0,0,1,6.283,3.192,1.118,1.118,0,0,0,.683.2c1.176.02,2.353.006,3.531.01a4.27,4.27,0,0,1,4.512,4.482c0,.228,0,.454,0,.765h2.534c.631,0,1.261-.008,1.892,0a1.524,1.524,0,0,1,1.637,1.527,1.509,1.509,0,0,1-1.619,1.476c-1.449.01-2.9,0-4.444,0,0,.312,0,.592,0,.874a4.259,4.259,0,0,1-4.428,4.375c-1.031.005-2.063-.025-3.093.018a1.594,1.594,0,0,0-.864.352,12.771,12.771,0,0,1-4.481,2.955,9.426,9.426,0,0,1-2.771.46c-3.72.05-7.44.026-11.16.014-.442,0-.662.055-.7.589A4.324,4.324,0,0,1,32.9,38.867c-.573.038-.813.147-.892.787-.38,3.042-.839,6.073-1.264,9.11a5.1,5.1,0,0,1-4.516,4.522,2.826,2.826,0,0,0-.36.1H21.327a4.237,4.237,0,0,0-.423-.106A4.92,4.92,0,0,1,16.612,49.5a10.909,10.909,0,0,1-.009-3.1c.375-4.116.8-8.23,1.215-12.342a.643.643,0,0,0-.385-.738,6.493,6.493,0,0,1-2.965-3.453c-.191-.5-.308-1.034-.458-1.552V19.546a2.922,2.922,0,0,0,.115-.351,6.583,6.583,0,0,1,4.042-5.032,16.11,16.11,0,0,1,2.53-.634ZM20.685,35.906c.355,0,.627-.021.9,0a1.115,1.115,0,0,1-.038,2.23c-.461.031-.926-.013-1.449.013.044,1.5.024.819.068,2.315.367,0,.675-.006.984,0a1.105,1.105,0,0,1,1.216,1.074,1.125,1.125,0,0,1-1.191,1.177c-.372.015-.747,0-1.167,0-.076.776-.144,1.493-.222,2.291.42,0,.774-.024,1.122.005a1.113,1.113,0,0,1,1.088,1.152,1.086,1.086,0,0,1-1.136,1.09c-.416.016-.834,0-1.23,0a2.131,2.131,0,0,0,1.784,3.042c1.45.023,2.9.044,4.351-.006a2.066,2.066,0,0,0,1.986-1.915q.757-5.52,1.546-11.033a1.535,1.535,0,0,1,1.671-1.445c.5-.014,1.009.01,1.514-.009a1.411,1.411,0,0,0,1.5-1.5c.014-.418,0-.835,0-1.253.005-1.364.545-1.909,1.9-1.91q2.3,0,4.6,0h2.141V30.5q0-3.7,0-7.393a2.483,2.483,0,0,1,.1-.8,1.274,1.274,0,0,1,2.451.548c.009,2.548,0,5.1,0,7.644v.738c1.266,0,2.466.079,3.649-.026a7.441,7.441,0,0,0,2.517-.645,12.5,12.5,0,0,0,2.239-1.6.92.92,0,0,0,.259-.645q.025-4.418,0-8.835a1.053,1.053,0,0,0-.276-.641c-2.309-2.5-5.3-2.45-8.386-2.172,0,.8,0,1.593,0,2.386-.006.9-.493,1.475-1.259,1.486-.787.013-1.29-.57-1.295-1.512-.005-.787,0-1.576,0-2.442H21.324c-.252,0-.5,0-.756.028a3.775,3.775,0,0,0-3.527,3.8c-.016,2.339-.013,4.678,0,7.017a3.762,3.762,0,0,0,2.678,3.628,1.517,1.517,0,0,1,1.244,1.871C20.886,33.891,20.785,34.843,20.685,35.906Zm36.248-8.493c1.175,0,2.326.036,3.473-.015a1.125,1.125,0,0,0,1.03-1.165q.032-2.537,0-5.074a1.142,1.142,0,0,0-1.078-1.187c-1.128-.049-2.259-.014-3.426-.014Z" transform="translate(-14.01 -13.53)" fill="#fe5000"/>
      <path id="Trazado_73" data-name="Trazado 73" d="M471.79,82.312c.336,0,.674-.014,1.009,0a1.5,1.5,0,0,1,1.491,1.545,1.48,1.48,0,0,1-1.5,1.47c-.693.02-1.389.02-2.082,0a1.507,1.507,0,1,1,.006-3.015C471.074,82.3,471.432,82.312,471.79,82.312Z" transform="translate(-411.766 -73.661)" fill="#fe5000"/>
    </g>
  </g>
</svg>
