<svg xmlns="http://www.w3.org/2000/svg" xmlns:xlink="http://www.w3.org/1999/xlink" width="108" height="108" viewBox="0 0 108 108">
  <defs>
    <filter id="Elipse_9" x="0" y="0" width="108" height="108" filterUnits="userSpaceOnUse">
      <feOffset dx="6" dy="6" input="SourceAlpha"/>
      <feGaussianBlur stdDeviation="3" result="blur"/>
      <feFlood flood-opacity="0.161"/>
      <feComposite operator="in" in2="blur"/>
      <feComposite in="SourceGraphic"/>
    </filter>
  </defs>
  <g id="Reparacion" transform="translate(-894 -1080)">
    <g transform="matrix(1, 0, 0, 1, 894, 1080)" filter="url(#Elipse_9)">
      <g id="Elipse_9-2" data-name="Elipse 9" transform="translate(3 3)" fill="#fffefe" stroke="#fffbfb" stroke-width="1">
        <circle cx="45" cy="45" r="45" stroke="none"/>
        <circle cx="45" cy="45" r="44.5" fill="none"/>
      </g>
    </g>
    <path id="Repair" d="M84.614,88.277H84.17a1.979,1.979,0,0,0-.322-.073,9.5,9.5,0,0,1-6.388-3.069C74.393,82,71.282,78.913,68.188,75.8c-.457-.459-.923-.909-1.368-1.38a1.194,1.194,0,0,1,0-1.739,4.128,4.128,0,0,0,.444-.492.742.742,0,0,0-.111-1.009.753.753,0,0,0-1.012-.09,1.912,1.912,0,0,0-.289.258,1.279,1.279,0,0,1-2.1-.014c-.533-.534-1.061-1.077-1.605-1.63-.758.76-1.468,1.49-2.2,2.2a.727.727,0,0,0-.236.768,12.915,12.915,0,0,1-9.473,15.21c-.64.167-1.3.269-1.947.4h-2.34c-.915-.209-1.844-.372-2.742-.638-1.391-.411-1.612-1.355-.6-2.372l5.914-5.945a3.867,3.867,0,0,0,1.147-3.652,3.922,3.922,0,0,0-6.651-2c-2.006,2-3.994,4.018-6,6.02a1.209,1.209,0,0,1-2.171-.55,12.6,12.6,0,0,1-.427-5.707A12.881,12.881,0,0,1,49.774,62.717a.8.8,0,0,0,.821-.271c1.305-1.333,2.628-2.661,3.95-3.983.652-.652,1.319-1.292,1.972-1.932a1.817,1.817,0,0,0-.14-.2q-4.406-4.43-8.823-8.848a1.094,1.094,0,0,0-.678-.271c-1.444-.051-2.889-.076-4.333-.091a1.483,1.483,0,0,1-1.327-.747q-3.452-5.334-6.932-10.651A1.27,1.27,0,0,1,34.5,33.81q2.444-2.461,4.9-4.916a8.177,8.177,0,0,1,.778-.613h.667c.138.088.278.174.414.266Q46.626,32.088,52,35.627a1.453,1.453,0,0,1,.691,1.3c.016,1.405.058,2.812.062,4.222a1.268,1.268,0,0,0,.412.971q4.2,4.194,8.379,8.418a2.291,2.291,0,0,1,.3.47c2.194-2.165,4.251-4.215,6.333-6.236a1.009,1.009,0,0,0,.313-1.059,12.875,12.875,0,0,1,8.717-14.8c.889-.286,1.826-.428,2.741-.636h2.333c.809.177,1.628.319,2.424.539,1.333.371,1.569,1.348.583,2.34q-2.914,2.936-5.832,5.867a3.847,3.847,0,0,0-1.111,3.711,3.918,3.918,0,0,0,6.611,1.935c2.023-2.008,4.025-4.038,6.037-6.057.941-.944,1.915-.733,2.285.541.276.951.444,1.933.667,2.9V42.39a3.842,3.842,0,0,0-.1.427A12.914,12.914,0,0,1,78.479,53.864c-.2-.039-.494-.067-.612.043-.93.868-1.828,1.769-2.793,2.718.578.549,1.082,1.012,1.568,1.494.925.919.911,1.349.058,2.348a1.18,1.18,0,0,0-.246.889.875.875,0,0,0,.626.509,1.143,1.143,0,0,0,.778-.3c.924-.826,1.385-.833,2.254.04l9.444,9.489c.549.556,1.111,1.092,1.634,1.667a9.22,9.22,0,0,1-4.665,15.2C85.9,88.11,85.251,88.173,84.614,88.277ZM72.576,57.542c-.917.906-1.837,1.818-2.76,2.727a1.214,1.214,0,0,1-1.971-.013L50.919,43.248a1.667,1.667,0,0,1-.524-1.23c-.013-1.388-.07-2.778-.078-4.164a.806.806,0,0,0-.428-.753q-4.436-2.9-8.855-5.831c-.12-.079-.246-.149-.242-.147l-4.063,3.969c2.033,3.123,4.081,6.267,6.146,9.4a.711.711,0,0,0,.5.222c1.333.049,2.666.1,4,.093a2.091,2.091,0,0,1,1.615.678Q57.317,53.9,65.671,62.275a1.289,1.289,0,0,1-.01,2.173c-.889.889-1.791,1.757-2.666,2.618l1.954,1.91a3.1,3.1,0,0,1,3.82.439c1.253,1.182,1.313,2.61.461,4.252L79.347,83.62c.186.181.362.372.561.538A6.652,6.652,0,0,0,86.4,85.545a6.817,6.817,0,0,0,2.878-11.326c-3.357-3.424-6.757-6.806-10.139-10.206-.063-.064-.137-.119-.2-.171-1.7.728-2.982.571-4.013-.477s-1.18-2.345-.481-3.974Zm9.7-26.791a19.521,19.521,0,0,0-2.444.014,10.458,10.458,0,0,0-8.8,13.35,1.484,1.484,0,0,1-.437,1.6c-1.957,1.944-3.889,3.912-5.842,5.863-.352.352-.738.667-1.1,1l5.255,5.162c.778-.771,1.652-1.575,2.459-2.438.629-.672,1.269-1.015,2.088-.444,1.074-1.057,2.131-2.068,3.152-3.111a1.471,1.471,0,0,1,1.6-.426,10.471,10.471,0,0,0,13.017-7.506,8.807,8.807,0,0,0,.1-4.188c-.186.111-.267.3-.4.444-1.417,1.438-2.826,2.881-4.267,4.294a6.3,6.3,0,0,1-10.5-2.609,6.1,6.1,0,0,1,1.513-6.312c1.359-1.444,2.785-2.818,4.181-4.222C81.975,31.1,82.093,30.96,82.281,30.751ZM36.729,76.515c1.585-1.569,3.089-3.074,4.613-4.555a6.068,6.068,0,0,1,5.753-1.725,6.352,6.352,0,0,1,3.3,10.568c-1.411,1.517-2.909,2.953-4.367,4.426-.14.141-.273.29-.409.436l.028.147A22.956,22.956,0,0,0,48.37,85.8a10.449,10.449,0,0,0,8.823-13.321,1.484,1.484,0,0,1,.438-1.648c.957-.9,1.889-1.822,2.8-2.708-.517-1.01-.468-1.345.259-2.067.889-.889,1.787-1.762,2.68-2.641l-5.316-5.254a2.149,2.149,0,0,1-.288.444c-2.043,2.065-4.1,4.111-6.139,6.189a1.541,1.541,0,0,1-1.65.431A10.534,10.534,0,0,0,36.729,76.515Z" transform="translate(878.055 1069.72)" fill="#fe5000"/>
  </g>
</svg>
